<svg version="1.1" xmlns="http://www.w3.org/2000/svg" viewBox="0 0 12880.7581398418 6887.399386911242" width="25761.5162796836" height="13774.798773822484">
  <!-- svg-source:excalidraw -->
  
  <defs>
    <style class="style-fonts">
      @font-face {
        font-family: "Virgil";
        src: url("https://excalidraw.com/Virgil.woff2");
      }
      @font-face {
        font-family: "Cascadia";
        src: url("https://excalidraw.com/Cascadia.woff2");
      }
      @font-face {
        font-family: "Assistant";
        src: url("https://excalidraw.com/Assistant-Regular.woff2");
      }
    </style>
    
  </defs>
  <rect x="0" y="0" width="12880.7581398418" height="6887.399386911242" fill="#ffffff"></rect><g stroke-linecap="round" transform="translate(10 3377.374639494815) rotate(0 475.28993613861485 464.2462473323644)"><path d="M339.05 20.4 C362.66 5.43, 394.77 6.13, 422.99 2.78 C451.21 -0.57, 480.33 -1.78, 508.38 0.29 C536.44 2.36, 564.02 8.13, 591.32 15.21 C618.62 22.29, 646.47 31.5, 672.18 42.78 C697.88 54.06, 722.38 67.23, 745.54 82.89 C768.7 98.56, 791.1 117.14, 811.15 136.75 C831.19 156.37, 849.61 177.99, 865.8 200.59 C881.99 223.19, 896.38 247.22, 908.29 272.37 C920.2 297.53, 930.29 324.64, 937.27 351.52 C944.25 378.4, 948.54 406.18, 950.17 433.64 C951.8 461.11, 950.5 488.95, 947.04 516.29 C943.59 543.62, 937.58 570.97, 929.45 597.65 C921.33 624.32, 911.1 651.59, 898.29 676.34 C885.48 701.08, 869.75 724.23, 852.6 746.12 C835.46 768, 816.1 789.13, 795.43 807.64 C774.76 826.15, 752.41 842.39, 728.57 857.16 C704.72 871.93, 678.71 886.03, 652.37 896.28 C626.02 906.52, 598.28 913.41, 570.51 918.62 C542.74 923.84, 514.06 926.86, 485.77 927.58 C457.48 928.3, 428.78 927.1, 400.78 922.93 C372.78 918.77, 344.67 911.87, 317.76 902.57 C290.86 893.26, 263.92 880.93, 239.33 867.09 C214.74 853.24, 191.76 837.04, 170.21 819.47 C148.65 801.91, 128.2 782.89, 110 761.7 C91.79 740.51, 74.83 716.43, 60.98 692.33 C47.12 668.24, 35.92 643.08, 26.85 617.13 C17.78 591.18, 10.86 564.04, 6.56 536.64 C2.27 509.24, 0.64 480.47, 1.1 452.74 C1.56 425.02, 3.7 397.14, 9.31 370.27 C14.92 343.4, 24.04 317.26, 34.74 291.54 C45.44 265.83, 58.44 239.46, 73.5 215.96 C88.56 192.46, 105.96 170.94, 125.12 150.54 C144.27 130.14, 165.87 110.14, 188.42 93.56 C210.98 76.99, 231.52 64.63, 260.47 51.09 C289.41 37.56, 340.78 17.86, 362.09 12.35 C383.41 6.83, 386.39 10.31, 388.36 18 M274.48 44.77 C295.26 26.85, 326.28 22.1, 353.7 15.01 C381.12 7.93, 410.75 4.31, 438.98 2.25 C467.21 0.19, 495.19 0.05, 523.08 2.66 C550.97 5.26, 579.23 10.18, 606.31 17.91 C633.39 25.63, 659.96 36.73, 685.55 49 C711.14 61.26, 737.03 75.1, 759.87 91.48 C782.7 107.87, 803.25 126.88, 822.56 147.31 C841.86 167.75, 860.59 190.66, 875.71 214.1 C890.82 237.55, 902.78 262.84, 913.25 287.98 C923.71 313.12, 932.34 338, 938.49 364.93 C944.65 391.87, 949.1 421.65, 950.17 449.6 C951.24 477.56, 949.23 505.66, 944.91 532.69 C940.6 559.71, 933.23 585.6, 924.28 611.75 C915.33 637.9, 904.92 665.03, 891.21 689.59 C877.5 714.15, 859.91 737.93, 842 759.1 C824.1 780.27, 805.05 799, 783.78 816.59 C762.5 834.18, 738.86 850.5, 714.37 864.64 C689.87 878.77, 663.5 892.1, 636.79 901.4 C610.08 910.71, 582.1 916.18, 554.13 920.46 C526.15 924.75, 497.27 927.16, 468.94 927.1 C440.62 927.04, 411.92 925.28, 384.19 920.09 C356.46 914.9, 328.69 905.85, 302.58 895.98 C276.47 886.1, 251.37 875.08, 227.52 860.83 C203.66 846.58, 180.74 829.25, 159.46 810.49 C138.18 791.73, 117.51 769.99, 99.86 748.28 C82.21 726.58, 66.74 704.49, 53.55 680.25 C40.35 656.02, 29.24 629.2, 20.68 602.85 C12.12 576.5, 5.51 549.53, 2.16 522.13 C-1.18 494.73, -1.33 466.03, 0.61 438.44 C2.55 410.85, 6.95 383.57, 13.79 356.6 C20.63 329.62, 30.15 302.06, 41.65 276.57 C53.14 251.09, 67.13 226.57, 82.75 203.68 C98.37 180.79, 115.82 159.05, 135.34 139.23 C154.86 119.4, 176.75 100.51, 199.85 84.75 C222.94 68.99, 260.74 50.08, 273.92 44.68 C287.1 39.28, 275.51 45.59, 278.91 52.33" stroke="#1e1e1e" stroke-width="2" fill="none"></path></g><g transform="translate(381.03197594706035 3805.97760167338) rotate(0 129.7579345703125 57.21419425474801)"><text x="0" y="80.1914146674549" font-family="Virgil, Segoe UI Emoji" font-size="91.5427108075969px" fill="#1e1e1e" text-anchor="start" style="white-space: pre;" direction="ltr" dominant-baseline="alphabetic">Start</text></g><g stroke-linecap="round" transform="translate(4684.6559867838505 3141.4688201242843) rotate(0 552.1576282437582 492.33715786897346)"><path d="M32 0 C378.51 2.84, 726.38 3.29, 1072.32 0 M32 0 C325.01 -2.3, 617.46 -2.11, 1072.32 0 M1072.32 0 C1095.07 -1.52, 1103.35 12.2, 1104.32 32 M1072.32 0 C1095.51 -1.81, 1102.75 9.97, 1104.32 32 M1104.32 32 C1105.15 390.55, 1105.88 747.22, 1104.32 952.67 M1104.32 32 C1103.71 395.84, 1103.29 759.14, 1104.32 952.67 M1104.32 952.67 C1105.3 972.41, 1092.85 984.71, 1072.32 984.67 M1104.32 952.67 C1104.87 974.13, 1094.57 982.81, 1072.32 984.67 M1072.32 984.67 C826.83 982.57, 580.49 981.95, 32 984.67 M1072.32 984.67 C863.68 985.59, 654.58 985.89, 32 984.67 M32 984.67 C11.88 984.31, 0.04 972.12, 0 952.67 M32 984.67 C12.35 984.15, -1.48 973.35, 0 952.67 M0 952.67 C3.69 762.95, 3.22 572.58, 0 32 M0 952.67 C0.85 659.08, 1.51 365.94, 0 32 M0 32 C0 10.85, 10.34 -0.69, 32 0 M0 32 C-0.22 10.56, 10.37 1.61, 32 0" stroke="#1e1e1e" stroke-width="2" fill="none"></path></g><g transform="translate(4607.219376133664 3220.537043850748) rotate(0 590.8702538530393 45.70541930135187)"><text x="590.8702538530393" y="64.06071569277506" font-family="Virgil, Segoe UI Emoji" font-size="73.12867088216332px" fill="#1e1e1e" text-anchor="middle" style="white-space: pre;" direction="ltr" dominant-baseline="alphabetic">Bot Task</text></g><g stroke-linecap="round" transform="translate(2320.6899463847067 3126.7463118015376) rotate(0 533.2296945402284 451.8574330059887)"><path d="M32 0 C418.74 2.18, 806.03 1.91, 1034.46 0 M32 0 C244.75 -0.57, 458.47 0.13, 1034.46 0 M1034.46 0 C1056.59 -1.34, 1068.2 12.24, 1066.46 32 M1034.46 0 C1057.81 -0.77, 1064.19 12.9, 1066.46 32 M1066.46 32 C1067.26 264.77, 1067.12 496.45, 1066.46 871.71 M1066.46 32 C1069.84 247.05, 1069.91 462.14, 1066.46 871.71 M1066.46 871.71 C1064.46 894.86, 1056.32 903.73, 1034.46 903.71 M1066.46 871.71 C1066.01 892.88, 1057.27 903.64, 1034.46 903.71 M1034.46 903.71 C735.36 899.95, 436.89 899.66, 32 903.71 M1034.46 903.71 C810.88 904.97, 587.55 905.45, 32 903.71 M32 903.71 C12.05 903.15, 1.79 894.39, 0 871.71 M32 903.71 C9.08 904.23, -1.23 891.66, 0 871.71 M0 871.71 C-3.17 587.9, -3.37 304.63, 0 32 M0 871.71 C-1.42 615.74, -1.65 359.29, 0 32 M0 32 C-0.47 10.06, 11.17 -1.25, 32 0 M0 32 C0.2 11.37, 11.66 -0.88, 32 0" stroke="#1e1e1e" stroke-width="2" fill="none"></path></g><g mask="url(#mask-xRuOsRJ7gHPGFOs8MEp0I)" stroke-linecap="round"><g transform="translate(965.896071840395 3774.8699763976665) rotate(0 674.4654871110847 -96.48571333451991)"><path d="M0.93 -0.76 C225.69 -32.71, 1124.13 -160.75, 1348.76 -192.87 M-0.04 1.45 C224.53 -30.18, 1123.08 -158.96, 1347.73 -191.27" stroke="#1e1e1e" stroke-width="2" fill="none"></path></g><g transform="translate(965.896071840395 3774.8699763976665) rotate(0 674.4654871110847 -96.48571333451991)"><path d="M1325.69 -179.47 C1331.5 -183.65, 1339.92 -187.41, 1347.73 -191.27 M1325.69 -179.47 C1331.69 -182.82, 1336.76 -185.79, 1347.73 -191.27" stroke="#1e1e1e" stroke-width="2" fill="none"></path></g><g transform="translate(965.896071840395 3774.8699763976665) rotate(0 674.4654871110847 -96.48571333451991)"><path d="M1323.26 -196.4 C1329.67 -195.24, 1338.86 -193.65, 1347.73 -191.27 M1323.26 -196.4 C1329.89 -195.36, 1335.59 -193.94, 1347.73 -191.27" stroke="#1e1e1e" stroke-width="2" fill="none"></path></g></g><mask id="mask-xRuOsRJ7gHPGFOs8MEp0I"><rect x="0" y="0" fill="#fff" width="2414.8270460625645" height="4067.8414030667063"></rect><rect x="1611.9755649939602" y="3655.8842630631466" fill="#000" width="56.77198791503906" height="45" opacity="1"></rect></mask><g transform="translate(1611.9755649939602 3655.8842630631466) rotate(0 28.282267644395915 23.277139216521846)"><text x="28.38599395751953" y="31.536" font-family="Virgil, Segoe UI Emoji" font-size="36px" fill="#1e1e1e" text-anchor="middle" style="white-space: pre;" direction="ltr" dominant-baseline="alphabetic">Int</text></g><g transform="translate(2496.4897238509875 3360.757239701681) rotate(0 372.5479736328125 228.19965189621303)"><text x="0" y="63.96892641954645" font-family="Virgil, Segoe UI Emoji" font-size="73.02388860678818px" fill="#1e1e1e" text-anchor="start" style="white-space: pre;" direction="ltr" dominant-baseline="alphabetic">Bot Config</text><text x="0" y="155.24878717803168" font-family="Virgil, Segoe UI Emoji" font-size="73.02388860678818px" fill="#1e1e1e" text-anchor="start" style="white-space: pre;" direction="ltr" dominant-baseline="alphabetic">-Markets </text><text x="0" y="246.5286479365169" font-family="Virgil, Segoe UI Emoji" font-size="73.02388860678818px" fill="#1e1e1e" text-anchor="start" style="white-space: pre;" direction="ltr" dominant-baseline="alphabetic">- Morpho Address</text><text x="0" y="337.8085086950021" font-family="Virgil, Segoe UI Emoji" font-size="73.02388860678818px" fill="#1e1e1e" text-anchor="start" style="white-space: pre;" direction="ltr" dominant-baseline="alphabetic">- Liquidator Address</text><text x="0" y="429.08836945348736" font-family="Virgil, Segoe UI Emoji" font-size="73.02388860678818px" fill="#1e1e1e" text-anchor="start" style="white-space: pre;" direction="ltr" dominant-baseline="alphabetic">- Private Key</text></g><g mask="url(#mask-bSeWz3dT232K-MZpJ0YBI)" stroke-linecap="round"><g transform="translate(3411.124020797336 3548.5402985013934) rotate(0 624.8025519368034 -3.533868052829348)"><path d="M1.03 -0.33 C209.51 -1.33, 1042.24 -5.72, 1250.52 -6.94 M0.1 -1.55 C208.54 -2.25, 1041.65 -4.49, 1250.05 -5.34" stroke="#1e1e1e" stroke-width="2" fill="none"></path></g><g transform="translate(3411.124020797336 3548.5402985013934) rotate(0 624.8025519368034 -3.533868052829348)"><path d="M1226.58 3.29 C1232.41 2.29, 1239.48 0.24, 1250.05 -5.34 M1226.58 3.29 C1233.15 0.81, 1237.93 -1.45, 1250.05 -5.34" stroke="#1e1e1e" stroke-width="2" fill="none"></path></g><g transform="translate(3411.124020797336 3548.5402985013934) rotate(0 624.8025519368034 -3.533868052829348)"><path d="M1226.53 -13.81 C1232.24 -10.22, 1239.32 -7.66, 1250.05 -5.34 M1226.53 -13.81 C1233.03 -11.98, 1237.83 -9.93, 1250.05 -5.34" stroke="#1e1e1e" stroke-width="2" fill="none"></path></g></g><mask id="mask-bSeWz3dT232K-MZpJ0YBI"><rect x="0" y="0" fill="#fff" width="4760.729124670943" height="3655.608034607052"></rect><rect x="3898.640623027108" y="3522.506430448564" fill="#000" width="274.5718994140625" height="45" opacity="1"></rect></mask><g transform="translate(3898.6406230271077 3522.506430448564) rotate(0 137.7944788271376 22.398170644417405)"><text x="137.28594970703125" y="31.536" font-family="Virgil, Segoe UI Emoji" font-size="36px" fill="#1e1e1e" text-anchor="middle" style="white-space: pre;" direction="ltr" dominant-baseline="alphabetic">Scheduke tasks</text></g><g stroke-linecap="round" transform="translate(10433.995258097622 10) rotate(0 552.1576282437582 492.33715786897346)"><path d="M32 0 C316.24 0.73, 602.27 -0.14, 1072.32 0 M32 0 C303.5 -0.85, 574.61 -1.41, 1072.32 0 M1072.32 0 C1093.32 -1.6, 1102.49 10.76, 1104.32 32 M1072.32 0 C1092.56 -1.48, 1105.67 10.54, 1104.32 32 M1104.32 32 C1107.09 353.47, 1107.19 674.07, 1104.32 952.67 M1104.32 32 C1101.76 325.25, 1101.98 617.48, 1104.32 952.67 M1104.32 952.67 C1102.38 972.64, 1091.81 986.5, 1072.32 984.67 M1104.32 952.67 C1103.99 974.59, 1094.99 983.2, 1072.32 984.67 M1072.32 984.67 C810.68 983.52, 550.37 983.46, 32 984.67 M1072.32 984.67 C694.76 982.37, 317.79 982.27, 32 984.67 M32 984.67 C9.41 985.79, 0.95 975.9, 0 952.67 M32 984.67 C12.33 982.68, 1.3 972.74, 0 952.67 M0 952.67 C0.41 615.2, -0.29 276.62, 0 32 M0 952.67 C-0.2 667.36, 0.36 381.79, 0 32 M0 32 C1.59 11.95, 9.41 -0.85, 32 0 M0 32 C2.03 11.07, 9.27 -1.89, 32 0" stroke="#1e1e1e" stroke-width="2" fill="none"></path></g><g transform="translate(10642.971566402523 224.23250447556075) rotate(0 321.1277160644531 192.20082289738275)"><text x="0" y="134.6943366864857" font-family="Virgil, Segoe UI Emoji" font-size="153.76065831790604px" fill="#1e1e1e" text-anchor="start" style="white-space: pre;" direction="ltr" dominant-baseline="alphabetic">Morpho</text><text x="0" y="326.89515958386824" font-family="Virgil, Segoe UI Emoji" font-size="153.76065831790604px" fill="#1e1e1e" text-anchor="start" style="white-space: pre;" direction="ltr" dominant-baseline="alphabetic">GraphQL</text></g><g mask="url(#mask-GTNs097aoRX7i6jjMGmT-)" stroke-linecap="round"><g transform="translate(7916.969904740348 2451.459301469258) rotate(0 1248.5516996192214 -888.9116892719653)"><path d="M-0.62 -0.32 C415.66 -296.57, 2081.42 -1481.47, 2497.79 -1777.6 M1.25 -1.53 C417.43 -298.17, 2081.22 -1483.35, 2497.2 -1779.6" stroke="#1e1e1e" stroke-width="2" fill="none"></path></g><g transform="translate(7916.969904740348 2451.459301469258) rotate(0 1248.5516996192214 -888.9116892719653)"><path d="M2483.03 -1759.01 C2486.87 -1764.13, 2492.14 -1770.72, 2497.2 -1779.6 M2483.03 -1759.01 C2488.5 -1767.18, 2493.69 -1773.08, 2497.2 -1779.6" stroke="#1e1e1e" stroke-width="2" fill="none"></path></g><g transform="translate(7916.969904740348 2451.459301469258) rotate(0 1248.5516996192214 -888.9116892719653)"><path d="M2473.11 -1772.94 C2480 -1773.72, 2488.32 -1776.03, 2497.2 -1779.6 M2473.11 -1772.94 C2482.13 -1776.12, 2490.91 -1776.97, 2497.2 -1779.6" stroke="#1e1e1e" stroke-width="2" fill="none"></path></g></g><mask id="mask-GTNs097aoRX7i6jjMGmT-"><rect x="0" y="0" fill="#fff" width="10514.073303978792" height="4329.282680013189"></rect><rect x="8955.119687855664" y="1540.0476121972924" fill="#000" width="420.8038330078125" height="45" opacity="1"></rect></mask><g transform="translate(8955.119687855664 1540.0476121972924) rotate(0 210.43550093136696 21.452075270545265)"><text x="210.40191650390625" y="31.536" font-family="Virgil, Segoe UI Emoji" font-size="36px" fill="#1e1e1e" text-anchor="middle" style="white-space: pre;" direction="ltr" dominant-baseline="alphabetic">market/position request</text></g><g mask="url(#mask-seyti38jPKeIiro5A3NLK)" stroke-linecap="round"><g transform="translate(10425.363201253396 349.8151333196811) rotate(0 -1485.6002872834747 1058.0025814586024)"><path d="M-0.75 0.43 C-495.9 353.14, -2476.64 1762.99, -2971.57 2115.43 M1.06 -0.39 C-494.22 352.54, -2477.43 1763.95, -2972.72 2116.66" stroke="#1e1e1e" stroke-width="2" fill="none"></path></g><g transform="translate(10425.363201253396 349.8151333196811) rotate(0 -1485.6002872834747 1058.0025814586024)"><path d="M-2958.54 2096.07 C-2961.41 2100.37, -2966.53 2107.38, -2972.72 2116.66 M-2958.54 2096.07 C-2962.09 2100.89, -2963.99 2104.63, -2972.72 2116.66" stroke="#1e1e1e" stroke-width="2" fill="none"></path></g><g transform="translate(10425.363201253396 349.8151333196811) rotate(0 -1485.6002872834747 1058.0025814586024)"><path d="M-2948.62 2110.01 C-2953.81 2110.85, -2961.34 2114.48, -2972.72 2116.66 M-2948.62 2110.01 C-2954.49 2111.83, -2958.6 2112.46, -2972.72 2116.66" stroke="#1e1e1e" stroke-width="2" fill="none"></path></g></g><mask id="mask-seyti38jPKeIiro5A3NLK"><rect x="0" y="0" fill="#fff" width="13496.563775820345" height="2565.820296236886"></rect><rect x="8826.416943816113" y="1385.3177147782835" fill="#000" width="226.6919403076172" height="45" opacity="1"></rect></mask><g transform="translate(8826.416943816113 1385.3177147782835) rotate(0 113.11767312806046 22.634270137734347)"><text x="113.3459701538086" y="31.536" font-family="Virgil, Segoe UI Emoji" font-size="36px" fill="#1e1e1e" text-anchor="middle" style="white-space: pre;" direction="ltr" dominant-baseline="alphabetic">market data</text></g><g stroke-linecap="round" transform="translate(10113.671666891321 2310.1027046099416) rotate(0 552.1576282437582 492.33715786897346)"><path d="M32 0 C377.97 0.46, 724.06 -0.01, 1072.32 0 M32 0 C348.02 -3.11, 663.44 -2.94, 1072.32 0 M1072.32 0 C1091.93 -0.24, 1104.81 9.68, 1104.32 32 M1072.32 0 C1093.29 -1.34, 1103.05 12.2, 1104.32 32 M1104.32 32 C1101.82 334.33, 1102.55 637.75, 1104.32 952.67 M1104.32 32 C1107.71 223.27, 1107.28 414.01, 1104.32 952.67 M1104.32 952.67 C1105.08 975.68, 1094.69 985.57, 1072.32 984.67 M1104.32 952.67 C1102.58 975.65, 1091.59 984.43, 1072.32 984.67 M1072.32 984.67 C798.97 985.01, 525.8 985.03, 32 984.67 M1072.32 984.67 C797.17 981.44, 521.79 981.72, 32 984.67 M32 984.67 C10.54 984.22, -0.33 972.23, 0 952.67 M32 984.67 C8.68 986.58, 1.16 975.85, 0 952.67 M0 952.67 C3.12 690.01, 2.92 426.15, 0 32 M0 952.67 C-2.77 660.05, -2.69 367.62, 0 32 M0 32 C-0.68 10.16, 8.83 1.76, 32 0 M0 32 C1.07 12.84, 12.25 1.95, 32 0" stroke="#1e1e1e" stroke-width="2" fill="none"></path></g><g transform="translate(10323.91209496828 2524.3352090855014) rotate(0 375.328125 192.20082289738275)"><text x="0" y="134.6943366864857" font-family="Virgil, Segoe UI Emoji" font-size="153.76065831790604px" fill="#1e1e1e" text-anchor="start" style="white-space: pre;" direction="ltr" dominant-baseline="alphabetic">Blockchain</text><text x="0" y="326.89515958386824" font-family="Virgil, Segoe UI Emoji" font-size="153.76065831790604px" fill="#1e1e1e" text-anchor="start" style="white-space: pre;" direction="ltr" dominant-baseline="alphabetic">Node</text></g><g mask="url(#mask-HL0QoeBeCVUF32OiAQqHV)" stroke-linecap="round"><g transform="translate(8182.945496629909 2736.378706804544) rotate(0 963.4554228260522 -92.66798939497994)"><path d="M0.44 -0.43 C321.66 -31.1, 1606.1 -153.72, 1927.04 -184.58 M-0.79 -1.7 C320.31 -32.66, 1604.61 -155.86, 1926.15 -186.3" stroke="#1e1e1e" stroke-width="2" fill="none"></path></g><g transform="translate(8182.945496629909 2736.378706804544) rotate(0 963.4554228260522 -92.66798939497994)"><path d="M1903.58 -175.56 C1909.13 -178.39, 1917.34 -183, 1926.15 -186.3 M1903.58 -175.56 C1909.73 -178.35, 1915.35 -181.05, 1926.15 -186.3" stroke="#1e1e1e" stroke-width="2" fill="none"></path></g><g transform="translate(8182.945496629909 2736.378706804544) rotate(0 963.4554228260522 -92.66798939497994)"><path d="M1901.95 -192.58 C1907.87 -190.73, 1916.52 -190.65, 1926.15 -186.3 M1901.95 -192.58 C1908.7 -190.59, 1914.77 -188.5, 1926.15 -186.3" stroke="#1e1e1e" stroke-width="2" fill="none"></path></g></g><mask id="mask-HL0QoeBeCVUF32OiAQqHV"><rect x="0" y="0" fill="#fff" width="10209.856342282013" height="3021.714685594504"></rect><rect x="8962.944986838773" y="2621.2107174095645" fill="#000" width="366.911865234375" height="45" opacity="1"></rect></mask><g transform="translate(8962.944986838773 2621.2107174095645) rotate(0 183.12355623649432 21.803776611517605)"><text x="183.4559326171875" y="31.536" font-family="Virgil, Segoe UI Emoji" font-size="36px" fill="#1e1e1e" text-anchor="middle" style="white-space: pre;" direction="ltr" dominant-baseline="alphabetic">market/positon data</text></g><g mask="url(#mask-f8pGA5TVXJg_PHBit12Ik)" stroke-linecap="round"><g transform="translate(10103.535743421715 2971.9626829458566) rotate(0 -958.7040760965856 -14.330323278093601)"><path d="M0.94 -0.74 C-318.84 -5.67, -1598.94 -24.5, -1918.59 -29.36 M-0.03 1.48 C-319.46 -3.31, -1596.92 -23.08, -1916.5 -28.18" stroke="#1e1e1e" stroke-width="2" fill="none"></path></g><g transform="translate(10103.535743421715 2971.9626829458566) rotate(0 -958.7040760965856 -14.330323278093601)"><path d="M-1892.88 -36.36 C-1901.27 -35.67, -1908.37 -30.49, -1916.5 -28.18 M-1892.88 -36.36 C-1897.35 -34.03, -1903.1 -32.34, -1916.5 -28.18" stroke="#1e1e1e" stroke-width="2" fill="none"></path></g><g transform="translate(10103.535743421715 2971.9626829458566) rotate(0 -958.7040760965856 -14.330323278093601)"><path d="M-1893.15 -19.27 C-1901.49 -23.76, -1908.5 -23.77, -1916.5 -28.18 M-1893.15 -19.27 C-1897.7 -20.35, -1903.39 -22.09, -1916.5 -28.18" stroke="#1e1e1e" stroke-width="2" fill="none"></path></g></g><mask id="mask-f8pGA5TVXJg_PHBit12Ik"><rect x="0" y="0" fill="#fff" width="12120.943895614886" height="3100.623329502044"></rect><rect x="8944.401735684503" y="2935.132359667763" fill="#000" width="400.85986328125" height="45" opacity="1"></rect></mask><g transform="translate(8944.401735684503 2935.132359667763) rotate(0 200.306513470784 22.894028728762805)"><text x="200.429931640625" y="31.536" font-family="Virgil, Segoe UI Emoji" font-size="36px" fill="#1e1e1e" text-anchor="middle" style="white-space: pre;" direction="ltr" dominant-baseline="alphabetic">market/position events</text></g><g stroke-linecap="round" transform="translate(9274.056391390179 5153.367570697583) rotate(0 552.1576282437582 492.33715786897346)"><path d="M32 0 C338.59 0.81, 644.64 -0.22, 1072.32 0 M32 0 C390.81 -0.27, 749.84 -0.42, 1072.32 0 M1072.32 0 C1095.09 -0.83, 1105.85 10.07, 1104.32 32 M1072.32 0 C1095.8 0.28, 1105.35 12.75, 1104.32 32 M1104.32 32 C1107.47 287.86, 1107.94 542.82, 1104.32 952.67 M1104.32 32 C1104.23 221.93, 1103.92 411.96, 1104.32 952.67 M1104.32 952.67 C1102.5 974.52, 1092.27 984.77, 1072.32 984.67 M1104.32 952.67 C1102.1 973.82, 1093.9 983.12, 1072.32 984.67 M1072.32 984.67 C778.62 987.45, 485.76 986.42, 32 984.67 M1072.32 984.67 C813.69 985.99, 555.56 985.75, 32 984.67 M32 984.67 C9.73 985.38, -1.58 973.22, 0 952.67 M32 984.67 C9.76 983.65, 1.35 974.34, 0 952.67 M0 952.67 C1.72 613.69, 1.87 273.53, 0 32 M0 952.67 C3.45 604.57, 3.49 256.29, 0 32 M0 32 C1.81 11.18, 10.3 -1.67, 32 0 M0 32 C2.19 8.96, 12.09 -2.15, 32 0" stroke="#1e1e1e" stroke-width="2" fill="none"></path></g><g transform="translate(9443.300107549125 5431.525304336108) rotate(0 379.47967529296875 192.20082289738252)"><text x="0" y="134.6943366864857" font-family="Virgil, Segoe UI Emoji" font-size="153.76065831790604px" fill="#1e1e1e" text-anchor="start" style="white-space: pre;" direction="ltr" dominant-baseline="alphabetic">Liquidator</text><text x="0" y="326.89515958386824" font-family="Virgil, Segoe UI Emoji" font-size="153.76065831790604px" fill="#1e1e1e" text-anchor="start" style="white-space: pre;" direction="ltr" dominant-baseline="alphabetic">Contract</text></g><g mask="url(#mask-nnYeOuFBfZ2RtOTuYWYtw)" stroke-linecap="round"><g transform="translate(8120.240796902037 3306.690837222899) rotate(0 103.58153821922406 731.4676494845646)"><path d="M-0.54 -0.19 C34.06 243.59, 173.53 1219.13, 208.26 1463 M1.38 -1.33 C35.86 242.63, 173.55 1220.28, 207.89 1464.57" stroke="#1e1e1e" stroke-width="2" fill="none"></path></g><g transform="translate(8120.240796902037 3306.690837222899) rotate(0 103.58153821922406 731.4676494845646)"><path d="M196.15 1442.5 C200.06 1452.19, 204.63 1459.33, 207.89 1464.57 M196.15 1442.5 C199.71 1448.35, 203.75 1456.11, 207.89 1464.57" stroke="#1e1e1e" stroke-width="2" fill="none"></path></g><g transform="translate(8120.240796902037 3306.690837222899) rotate(0 103.58153821922406 731.4676494845646)"><path d="M213.08 1440.11 C211 1450.58, 209.58 1458.55, 207.89 1464.57 M213.08 1440.11 C211.44 1446.78, 210.31 1455.26, 207.89 1464.57" stroke="#1e1e1e" stroke-width="2" fill="none"></path></g></g><mask id="mask-nnYeOuFBfZ2RtOTuYWYtw"><rect x="0" y="0" fill="#fff" width="8427.403873340485" height="4869.626136192028"></rect><rect x="8152.848374244797" y="4015.6584867074635" fill="#000" width="141.9479217529297" height="45" opacity="1"></rect></mask><g transform="translate(8152.848374244797 4015.6584867074635) rotate(0 71.25298424400376 22.649796730969456)"><text x="70.97396087646484" y="31.536" font-family="Virgil, Segoe UI Emoji" font-size="36px" fill="#1e1e1e" text-anchor="middle" style="white-space: pre;" direction="ltr" dominant-baseline="alphabetic">multicall</text></g><g stroke-linecap="round" transform="translate(7386.55121035677 4770.644412122185) rotate(0 552.1576282437582 492.33715786897346)"><path d="M32 0 C344.22 0.55, 655.38 -0.86, 1072.32 0 M32 0 C311.01 -2.31, 589.71 -2.59, 1072.32 0 M1072.32 0 C1092.72 -1.47, 1103.54 12.25, 1104.32 32 M1072.32 0 C1094.8 -1.64, 1104.44 10.41, 1104.32 32 M1104.32 32 C1104.31 234.34, 1105.61 435.7, 1104.32 952.67 M1104.32 32 C1106.06 230.87, 1106.45 429.03, 1104.32 952.67 M1104.32 952.67 C1104.98 973.6, 1095.62 985.97, 1072.32 984.67 M1104.32 952.67 C1102.4 974.35, 1095.09 984.77, 1072.32 984.67 M1072.32 984.67 C821.19 986.46, 571.44 986.3, 32 984.67 M1072.32 984.67 C702.66 987.12, 333.32 986.8, 32 984.67 M32 984.67 C11.55 983.68, -1.77 974.8, 0 952.67 M32 984.67 C12.85 986.65, 0.02 972.5, 0 952.67 M0 952.67 C-1.89 596.61, -1.2 240.44, 0 32 M0 952.67 C-0.92 622.21, -1.36 292.4, 0 32 M0 32 C-0.84 11.23, 9.1 -0.39, 32 0 M0 32 C0.13 8.59, 10.36 0.95, 32 0" stroke="#1e1e1e" stroke-width="2" fill="none"></path></g><g transform="translate(7455.53715149027 5119.482004632573) rotate(0 484.57898726404187 95.23786335514205)"><text x="0" y="66.74269463928361" font-family="Virgil, Segoe UI Emoji" font-size="76.1902906841137px" fill="#1e1e1e" text-anchor="start" style="white-space: pre;" direction="ltr" dominant-baseline="alphabetic">- Get user health Factor</text><text x="0" y="161.98055799442574" font-family="Virgil, Segoe UI Emoji" font-size="76.1902906841137px" fill="#1e1e1e" text-anchor="start" style="white-space: pre;" direction="ltr" dominant-baseline="alphabetic">- Liqudate position</text></g><g mask="url(#mask-sSWKn7GLrgQ033ow18UCa)" stroke-linecap="round"><g transform="translate(8509.131988158348 5129.856680892153) rotate(0 378.32053454167226 194.14046326938274)"><path d="M0.11 0.62 C126.12 65.7, 630.41 324.91, 756.47 389.4 M-1.3 -0.1 C124.52 64.76, 629.28 323.1, 755.42 387.86" stroke="#1e1e1e" stroke-width="2" fill="none"></path></g><g transform="translate(8509.131988158348 5129.856680892153) rotate(0 378.32053454167226 194.14046326938274)"><path d="M730.62 384.76 C739.82 385.47, 748.84 386.46, 755.42 387.86 M730.62 384.76 C736.49 385.19, 742.63 387.26, 755.42 387.86" stroke="#1e1e1e" stroke-width="2" fill="none"></path></g><g transform="translate(8509.131988158348 5129.856680892153) rotate(0 378.32053454167226 194.14046326938274)"><path d="M738.42 369.54 C744.91 375.28, 751.35 381.3, 755.42 387.86 M738.42 369.54 C742.3 373.51, 746.6 379.18, 755.42 387.86" stroke="#1e1e1e" stroke-width="2" fill="none"></path></g></g><mask id="mask-sSWKn7GLrgQ033ow18UCa"><rect x="0" y="0" fill="#fff" width="9365.773057241691" height="5618.137607430919"></rect><rect x="8816.478561823555" y="5301.497144161536" fill="#000" width="141.9479217529297" height="45" opacity="1"></rect></mask><g transform="translate(8816.478561823555 5301.497144161536) rotate(0 70.23809356733273 23.009120860705366)"><text x="70.97396087646484" y="31.536" font-family="Virgil, Segoe UI Emoji" font-size="36px" fill="#1e1e1e" text-anchor="middle" style="white-space: pre;" direction="ltr" dominant-baseline="alphabetic">multicall</text></g><g mask="url(#mask-AETYajRnbh-PoB2Tt5d7F)" stroke-linecap="round"><g transform="translate(9270.088500601483 5753.939535257072) rotate(0 -387.3001439569948 -114.64258622474927)"><path d="M-0.17 -0.05 C-129.4 -37.95, -646.69 -190.18, -775.65 -228.3 M-1.71 -1.12 C-130.57 -39.27, -644.72 -191.61, -773.49 -229.9" stroke="#1e1e1e" stroke-width="2" fill="none"></path></g><g transform="translate(9270.088500601483 5753.939535257072) rotate(0 -387.3001439569948 -114.64258622474927)"><path d="M-748.54 -231.42 C-755.62 -232.78, -760.89 -229.47, -773.49 -229.9 M-748.54 -231.42 C-757.03 -231.01, -764.93 -229.57, -773.49 -229.9" stroke="#1e1e1e" stroke-width="2" fill="none"></path></g><g transform="translate(9270.088500601483 5753.939535257072) rotate(0 -387.3001439569948 -114.64258622474927)"><path d="M-753.4 -215.02 C-759.01 -220.97, -762.91 -222.26, -773.49 -229.9 M-753.4 -215.02 C-760.3 -220.21, -766.54 -224.37, -773.49 -229.9" stroke="#1e1e1e" stroke-width="2" fill="none"></path></g></g><mask id="mask-AETYajRnbh-PoB2Tt5d7F"><rect x="0" y="0" fill="#fff" width="10144.688788515472" height="6083.22470770657"></rect><rect x="8740.552425248005" y="5616.796949032323" fill="#000" width="284.47186279296875" height="45" opacity="1"></rect></mask><g transform="translate(8740.552425248005 5616.796949032323) rotate(0 141.62600967846765 22.166443193089208)"><text x="142.23593139648438" y="31.536" font-family="Virgil, Segoe UI Emoji" font-size="36px" fill="#1e1e1e" text-anchor="middle" style="white-space: pre;" direction="ltr" dominant-baseline="alphabetic">multicall results</text></g><g stroke-linecap="round" transform="translate(4818.3829175745195 5892.725071173296) rotate(0 552.1576282437582 492.3371578689734)"><path d="M32 0 C422.05 2.65, 812.05 2.59, 1072.32 0 M32 0 C325.3 1.91, 617.87 1.3, 1072.32 0 M1072.32 0 C1095.61 1.01, 1103.25 11.31, 1104.32 32 M1072.32 0 C1093.53 0.68, 1106.54 12.96, 1104.32 32 M1104.32 32 C1102.6 298.97, 1103.13 565.9, 1104.32 952.67 M1104.32 32 C1103.49 325.98, 1103.51 620.52, 1104.32 952.67 M1104.32 952.67 C1103.3 974.11, 1094.73 985, 1072.32 984.67 M1104.32 952.67 C1104.77 973.07, 1094.02 985.26, 1072.32 984.67 M1072.32 984.67 C742.69 987.78, 413.33 986.86, 32 984.67 M1072.32 984.67 C691.98 981.14, 311.8 981.11, 32 984.67 M32 984.67 C10.35 985.47, 1.05 972.04, 0 952.67 M32 984.67 C8.61 983.73, 1.93 972.89, 0 952.67 M0 952.67 C-2.3 747.36, -2.03 540.95, 0 32 M0 952.67 C0.88 762.04, 1.49 571.92, 0 32 M0 32 C-0.09 9.89, 10.89 -0.88, 32 0 M0 32 C-0.93 9.85, 12.11 -0.45, 32 0" stroke="#1e1e1e" stroke-width="2" fill="none"></path></g><g transform="translate(5017.07190635507 6231.318934496301) rotate(0 362.0473327636719 118.10113549051215)"><text x="362.0473327636719" y="82.76527575175092" font-family="Virgil, Segoe UI Emoji" font-size="94.48090839240973px" fill="#1e1e1e" text-anchor="middle" style="white-space: pre;" direction="ltr" dominant-baseline="alphabetic">Redis/</text><text x="362.0473327636719" y="200.8664112422631" font-family="Virgil, Segoe UI Emoji" font-size="94.48090839240973px" fill="#1e1e1e" text-anchor="middle" style="white-space: pre;" direction="ltr" dominant-baseline="alphabetic">in memory cache</text></g><g transform="translate(4803.62058826461 3400.047000375239) rotate(0 455.8171691894531 53.936019078355)"><text x="0" y="37.79836217011111" font-family="Virgil, Segoe UI Emoji" font-size="43.14881526268392px" fill="#1e1e1e" text-anchor="start" style="white-space: pre;" direction="ltr" dominant-baseline="alphabetic">- Get market events from Blockchain Node</text><text x="0" y="91.73438124846601" font-family="Virgil, Segoe UI Emoji" font-size="43.14881526268392px" fill="#1e1e1e" text-anchor="start" style="white-space: pre;" direction="ltr" dominant-baseline="alphabetic">- Create markets behaviour</text></g><g stroke-linecap="round" transform="translate(11766.442883354284 5120.349252642691) rotate(0 552.1576282437582 492.33715786897346)"><path d="M32 0 C379.99 2.02, 726.31 2.33, 1072.32 0 M32 0 C430.46 3.77, 829.37 4.5, 1072.32 0 M1072.32 0 C1093 -1.9, 1103.8 11.5, 1104.32 32 M1072.32 0 C1095.47 -1.71, 1106.38 11.89, 1104.32 32 M1104.32 32 C1106.1 343.34, 1106.23 654.41, 1104.32 952.67 M1104.32 32 C1107.43 295.27, 1107.12 558.14, 1104.32 952.67 M1104.32 952.67 C1104.78 973.65, 1092.76 984.96, 1072.32 984.67 M1104.32 952.67 C1106.37 972.89, 1092.55 986.83, 1072.32 984.67 M1072.32 984.67 C732.37 985.29, 392.89 985.3, 32 984.67 M1072.32 984.67 C853.37 989.09, 633.94 988.4, 32 984.67 M32 984.67 C10.16 985.73, -0.76 973.39, 0 952.67 M32 984.67 C9.08 984.2, 0.94 974.61, 0 952.67 M0 952.67 C2.24 646.62, 2.44 341.57, 0 32 M0 952.67 C-3.33 762.83, -3.2 572.67, 0 32 M0 32 C-0.62 9.73, 8.9 0.15, 32 0 M0 32 C-0.04 8.85, 11.28 0.48, 32 0" stroke="#1e1e1e" stroke-width="2" fill="none"></path></g><g transform="translate(11935.68659951323 5398.506986281215) rotate(0 379.47967529296875 192.20082289738252)"><text x="0" y="134.6943366864857" font-family="Virgil, Segoe UI Emoji" font-size="153.76065831790604px" fill="#1e1e1e" text-anchor="start" style="white-space: pre;" direction="ltr" dominant-baseline="alphabetic">Liquidator</text><text x="0" y="326.89515958386824" font-family="Virgil, Segoe UI Emoji" font-size="153.76065831790604px" fill="#1e1e1e" text-anchor="start" style="white-space: pre;" direction="ltr" dominant-baseline="alphabetic">Contract</text></g><g mask="url(#mask-us-QzmAzZlqdGntV0DtS-)" stroke-linecap="round"><g transform="translate(10395.547410767569 5377.843470098798) rotate(0 676.3149756363268 -16.05214158831336)"><path d="M0.55 -0.84 C226.21 -5.96, 1127.65 -26.28, 1353.16 -31.6 M-0.62 1.34 C225 -4.08, 1126.83 -27.93, 1352.48 -33.46" stroke="#1e1e1e" stroke-width="2" fill="none"></path></g><g transform="translate(10395.547410767569 5377.843470098798) rotate(0 676.3149756363268 -16.05214158831336)"><path d="M1329.22 -24.31 C1333.32 -25.68, 1340.98 -27.1, 1352.48 -33.46 M1329.22 -24.31 C1334.53 -27.63, 1339.76 -28.41, 1352.48 -33.46" stroke="#1e1e1e" stroke-width="2" fill="none"></path></g><g transform="translate(10395.547410767569 5377.843470098798) rotate(0 676.3149756363268 -16.05214158831336)"><path d="M1328.78 -41.41 C1332.86 -38.79, 1340.62 -36.22, 1352.48 -33.46 M1328.78 -41.41 C1334.32 -40.57, 1339.66 -37.21, 1352.48 -33.46" stroke="#1e1e1e" stroke-width="2" fill="none"></path></g></g><mask id="mask-us-QzmAzZlqdGntV0DtS-"><rect x="0" y="0" fill="#fff" width="11848.177362040224" height="5509.9477532754245"></rect><rect x="10996.928426442959" y="5339.291328510484" fill="#000" width="149.867919921875" height="45" opacity="1"></rect></mask><g transform="translate(10996.928426442959 5339.291328510485) rotate(0 74.88843303306976 22.490148766134098)"><text x="74.9339599609375" y="31.536" font-family="Virgil, Segoe UI Emoji" font-size="36px" fill="#1e1e1e" text-anchor="middle" style="white-space: pre;" direction="ltr" dominant-baseline="alphabetic">liquidate</text></g><g mask="url(#mask-oTrzKxEINexIevaNA-ijj)" stroke-linecap="round"><g transform="translate(11783.180402625192 5721.50968675124) rotate(0 -690.0023414441484 3.018630835005297)"><path d="M-0.96 0.2 C-230.92 1.2, -1150.25 4.84, -1380.19 6.01 M0.74 -0.73 C-229.36 0.46, -1150.83 6.5, -1381.24 7.54" stroke="#1e1e1e" stroke-width="2" fill="none"></path></g><g transform="translate(11783.180402625192 5721.50968675124) rotate(0 -690.0023414441484 3.018630835005297)"><path d="M-1357.79 -1.14 C-1363.63 0.65, -1370.2 2.22, -1381.24 7.54 M-1357.79 -1.14 C-1368.16 1.29, -1376.14 5.09, -1381.24 7.54" stroke="#1e1e1e" stroke-width="2" fill="none"></path></g><g transform="translate(11783.180402625192 5721.50968675124) rotate(0 -690.0023414441484 3.018630835005297)"><path d="M-1357.7 15.96 C-1363.57 13.24, -1370.16 10.29, -1381.24 7.54 M-1357.7 15.96 C-1367.97 11.57, -1375.99 8.56, -1381.24 7.54" stroke="#1e1e1e" stroke-width="2" fill="none"></path></g></g><mask id="mask-oTrzKxEINexIevaNA-ijj"><rect x="0" y="0" fill="#fff" width="13263.185085513489" height="5827.546948421251"></rect><rect x="10934.508139306045" y="5702.028317586246" fill="#000" width="317.33984375" height="45" opacity="1"></rect></mask><g transform="translate(10934.508139306043 5702.028317586246) rotate(0 158.4248354773781 22.884500399027047)"><text x="158.669921875" y="31.536" font-family="Virgil, Segoe UI Emoji" font-size="36px" fill="#1e1e1e" text-anchor="middle" style="white-space: pre;" direction="ltr" dominant-baseline="alphabetic">liquidation results</text></g><g mask="url(#mask-6jCMWpFMuEizGl4WH0wrB)" stroke-linecap="round"><g transform="translate(12372.369527517416 5107.561585731287) rotate(0 -678.1843292206463 -905.8922826916996)"><path d="M0.71 -0.96 C-225.5 -302.75, -1130.91 -1509.36, -1357.12 -1811.35 M-0.37 1.15 C-226.22 -300.96, -1128.64 -1511.03, -1354.8 -1813.24" stroke="#1e1e1e" stroke-width="2" fill="none"></path></g><g transform="translate(12372.369527517416 5107.561585731287) rotate(0 -678.1843292206463 -905.8922826916996)"><path d="M-1333.89 -1799.53 C-1342.02 -1804.98, -1346.28 -1808.3, -1354.8 -1813.24 M-1333.89 -1799.53 C-1338.97 -1802.29, -1343.4 -1804.63, -1354.8 -1813.24" stroke="#1e1e1e" stroke-width="2" fill="none"></path></g><g transform="translate(12372.369527517416 5107.561585731287) rotate(0 -678.1843292206463 -905.8922826916996)"><path d="M-1347.59 -1789.3 C-1351.35 -1798.06, -1351.29 -1804.61, -1354.8 -1813.24 M-1347.59 -1789.3 C-1349.78 -1794.32, -1351.33 -1798.81, -1354.8 -1813.24" stroke="#1e1e1e" stroke-width="2" fill="none"></path></g></g><mask id="mask-6jCMWpFMuEizGl4WH0wrB"><rect x="0" y="0" fill="#fff" width="13828.738185958708" height="7019.346151114686"></rect><rect x="11545.289247979388" y="4179.169303039587" fill="#000" width="297.7919006347656" height="45" opacity="1"></rect></mask><g transform="translate(11545.289247979388 4179.169303039587) rotate(0 148.8776482339954 22.349613141305554)"><text x="148.8959503173828" y="31.536" font-family="Virgil, Segoe UI Emoji" font-size="36px" fill="#1e1e1e" text-anchor="middle" style="white-space: pre;" direction="ltr" dominant-baseline="alphabetic">send transaction</text></g><g mask="url(#mask-LgYvMXmQfyVD8MmApT8SK)" stroke-linecap="round"><g transform="translate(11237.581949970412 2779.571149568982) rotate(0 793.5077996516939 1158.8842510717031)"><path d="M0.8 0.74 C265.4 386.87, 1323.26 1930.74, 1587.7 2316.95 M-0.24 0.08 C264.26 386.33, 1322.59 1931.5, 1587.12 2318.05" stroke="#1e1e1e" stroke-width="2" fill="none"></path></g><g transform="translate(11237.581949970412 2779.571149568982) rotate(0 793.5077996516939 1158.8842510717031)"><path d="M1566.79 2303.5 C1574.28 2308.98, 1577.92 2313.02, 1587.12 2318.05 M1566.79 2303.5 C1573.28 2307.7, 1579.71 2312.89, 1587.12 2318.05" stroke="#1e1e1e" stroke-width="2" fill="none"></path></g><g transform="translate(11237.581949970412 2779.571149568982) rotate(0 793.5077996516939 1158.8842510717031)"><path d="M1580.9 2293.84 C1584.07 2302.38, 1583.38 2309.39, 1587.12 2318.05 M1580.9 2293.84 C1583.02 2301.06, 1585.01 2309.29, 1587.12 2318.05" stroke="#1e1e1e" stroke-width="2" fill="none"></path></g></g><mask id="mask-LgYvMXmQfyVD8MmApT8SK"><rect x="0" y="0" fill="#fff" width="12924.5975492738" height="5197.339651712388"></rect><rect x="11867.235806751012" y="3915.955400640685" fill="#000" width="327.7078857421875" height="45" opacity="1"></rect></mask><g transform="translate(11867.235806751012 3915.9554006406847) rotate(0 164.07823319717318 22.681176403853897)"><text x="163.85394287109375" y="31.536" font-family="Virgil, Segoe UI Emoji" font-size="36px" fill="#1e1e1e" text-anchor="middle" style="white-space: pre;" direction="ltr" dominant-baseline="alphabetic">transation results</text></g><g mask="url(#mask-tGBhhRM0Mx2ZvJciBktlF)" stroke-linecap="round"><g transform="translate(9460.629267985943 5128.700719839873) rotate(0 435.7181107437409 -910.2643141413564)"><path d="M-0.66 0.78 C144.5 -302.63, 725.29 -1516.55, 870.51 -1819.96 M1.19 0.15 C146.76 -303.66, 727.41 -1518.16, 872.74 -1821.79" stroke="#1e1e1e" stroke-width="2" fill="none"></path></g><g transform="translate(9460.629267985943 5128.700719839873) rotate(0 435.7181107437409 -910.2643141413564)"><path d="M870.32 -1796.91 C872.16 -1804.98, 872.43 -1811.27, 872.74 -1821.79 M870.32 -1796.91 C871.63 -1805.66, 872.63 -1815.22, 872.74 -1821.79" stroke="#1e1e1e" stroke-width="2" fill="none"></path></g><g transform="translate(9460.629267985943 5128.700719839873) rotate(0 435.7181107437409 -910.2643141413564)"><path d="M854.89 -1804.29 C860.82 -1810.33, 865.15 -1814.68, 872.74 -1821.79 M854.89 -1804.29 C861.9 -1810.41, 868.55 -1817.25, 872.74 -1821.79" stroke="#1e1e1e" stroke-width="2" fill="none"></path></g></g><mask id="mask-tGBhhRM0Mx2ZvJciBktlF"><rect x="0" y="0" fill="#fff" width="10432.065489473425" height="7049.229348122586"></rect><rect x="9747.4514284123" y="4195.936405698517" fill="#000" width="297.7919006347656" height="45" opacity="1"></rect></mask><g transform="translate(9747.451428412302 4195.936405698517) rotate(0 149.21728424458797 22.2600001044666)"><text x="148.8959503173828" y="31.536" font-family="Virgil, Segoe UI Emoji" font-size="36px" fill="#1e1e1e" text-anchor="middle" style="white-space: pre;" direction="ltr" dominant-baseline="alphabetic">send transaction</text></g><g mask="url(#mask-0-PKSVneMDQyvzLDJKu2K)" stroke-linecap="round"><g transform="translate(10849.078113749743 3339.792245291853) rotate(0 -433.5392842174492 883.1184317947937)"><path d="M0.94 0.85 C-143.73 295.26, -722.45 1471.26, -866.97 1765.33 M-0.02 0.26 C-144.93 294.88, -723.45 1472.08, -867.86 1766.39" stroke="#1e1e1e" stroke-width="2" fill="none"></path></g><g transform="translate(10849.078113749743 3339.792245291853) rotate(0 -433.5392842174492 883.1184317947937)"><path d="M-865.18 1741.54 C-865.03 1751.34, -869 1762.21, -867.86 1766.39 M-865.18 1741.54 C-866.54 1746.89, -866.85 1752.36, -867.86 1766.39" stroke="#1e1e1e" stroke-width="2" fill="none"></path></g><g transform="translate(10849.078113749743 3339.792245291853) rotate(0 -433.5392842174492 883.1184317947937)"><path d="M-849.83 1749.07 C-855.54 1756.09, -865.44 1764.04, -867.86 1766.39 M-849.83 1749.07 C-854.51 1752.83, -858.2 1756.64, -867.86 1766.39" stroke="#1e1e1e" stroke-width="2" fill="none"></path></g></g><mask id="mask-0-PKSVneMDQyvzLDJKu2K"><rect x="0" y="0" fill="#fff" width="11816.156682184643" height="5206.02910888144"></rect><rect x="10251.6848866612" y="4200.4106770866465" fill="#000" width="327.7078857421875" height="45" opacity="1"></rect></mask><g transform="translate(10251.684886661198 4200.410677086646) rotate(0 163.93237492756953 22.704944237954805)"><text x="163.85394287109375" y="31.536" font-family="Virgil, Segoe UI Emoji" font-size="36px" fill="#1e1e1e" text-anchor="middle" style="white-space: pre;" direction="ltr" dominant-baseline="alphabetic">transation results</text></g><g mask="url(#mask-bHObj3l_134ZuY1grHJ0f)" stroke-linecap="round"><g transform="translate(7223.522179973357 3317.3731941760443) rotate(0 -1094.455282997888 1265.9832589653363)"><path d="M0.31 0.47 C-364.51 422.67, -1824.79 2110.78, -2189.63 2532.71 M-0.99 -0.32 C-365.36 421.57, -1822.56 2108.69, -2187.3 2530.98" stroke="#1e1e1e" stroke-width="2" fill="none"></path></g><g transform="translate(7223.522179973357 3317.3731941760443) rotate(0 -1094.455282997888 1265.9832589653363)"><path d="M-2178.41 2507.61 C-2179.86 2512.09, -2181.56 2519.26, -2187.3 2530.98 M-2178.41 2507.61 C-2181.95 2514.19, -2184.08 2522.42, -2187.3 2530.98" stroke="#1e1e1e" stroke-width="2" fill="none"></path></g><g transform="translate(7223.522179973357 3317.3731941760443) rotate(0 -1094.455282997888 1265.9832589653363)"><path d="M-2165.47 2518.79 C-2170 2520.59, -2174.84 2525.06, -2187.3 2530.98 M-2165.47 2518.79 C-2173.03 2522.01, -2179.12 2526.81, -2187.3 2530.98" stroke="#1e1e1e" stroke-width="2" fill="none"></path></g></g><mask id="mask-bHObj3l_134ZuY1grHJ0f"><rect x="0" y="0" fill="#fff" width="9512.432745969134" height="5949.339712106717"></rect><rect x="5917.332979739142" y="4515.85645314138" fill="#000" width="423.46783447265625" height="135" opacity="1"></rect></mask><g transform="translate(5917.332979739141 4515.85645314138) rotate(0 211.52848973236974 67.71066008253024)"><text x="211.73391723632812" y="31.536" font-family="Virgil, Segoe UI Emoji" font-size="36px" fill="#1e1e1e" text-anchor="middle" style="white-space: pre;" direction="ltr" dominant-baseline="alphabetic">store market events</text><text x="211.73391723632812" y="76.536" font-family="Virgil, Segoe UI Emoji" font-size="36px" fill="#1e1e1e" text-anchor="middle" style="white-space: pre;" direction="ltr" dominant-baseline="alphabetic">get market postions</text><text x="211.73391723632812" y="121.536" font-family="Virgil, Segoe UI Emoji" font-size="36px" fill="#1e1e1e" text-anchor="middle" style="white-space: pre;" direction="ltr" dominant-baseline="alphabetic">store luidated positions</text></g><g mask="url(#mask-b8Kf0AOUfzpofShtngudL)" stroke-linecap="round"><g transform="translate(5635.395433233325 5871.222061264445) rotate(0 1011.9932630394585 -1263.9672058805852)"><path d="M-0.82 -0.73 C336.8 -421.97, 1687.46 -2107.34, 2025.01 -2528.44 M0.95 1.5 C338.56 -419.5, 1687.43 -2105.36, 2024.6 -2527.17" stroke="#1e1e1e" stroke-width="2" fill="none"></path></g><g transform="translate(5635.395433233325 5871.222061264445) rotate(0 1011.9932630394585 -1263.9672058805852)"><path d="M2016.6 -2503.48 C2017.51 -2507.44, 2019.81 -2514.01, 2024.6 -2527.17 M2016.6 -2503.48 C2018.79 -2511.49, 2022.78 -2520.26, 2024.6 -2527.17" stroke="#1e1e1e" stroke-width="2" fill="none"></path></g><g transform="translate(5635.395433233325 5871.222061264445) rotate(0 1011.9932630394585 -1263.9672058805852)"><path d="M2003.25 -2514.16 C2007.3 -2515.45, 2012.82 -2519.44, 2024.6 -2527.17 M2003.25 -2514.16 C2010.1 -2518.36, 2018.77 -2523.39, 2024.6 -2527.17" stroke="#1e1e1e" stroke-width="2" fill="none"></path></g></g><mask id="mask-b8Kf0AOUfzpofShtngudL"><rect x="0" y="0" fill="#fff" width="7759.3819593122425" height="8499.156473025616"></rect><rect x="6478.386773665361" y="4584.754855383861" fill="#000" width="338.00384521484375" height="45" opacity="1"></rect></mask><g transform="translate(6478.386773665361 4584.75485538386) rotate(0 169.10443101562578 22.999504756042825)"><text x="169.00192260742188" y="31.536" font-family="Virgil, Segoe UI Emoji" font-size="36px" fill="#1e1e1e" text-anchor="middle" style="white-space: pre;" direction="ltr" dominant-baseline="alphabetic">liquidated positions</text></g><g stroke-linecap="round" transform="translate(4337.505290062638 952.547211219814) rotate(0 552.1576282437582 492.33715786897346)"><path d="M32 0 C337.44 -3.66, 644.81 -3.57, 1072.32 0 M32 0 C288.78 1.9, 546.49 1.86, 1072.32 0 M1072.32 0 C1093.1 -0.28, 1105.78 11.49, 1104.32 32 M1072.32 0 C1093.97 2.12, 1103.49 11.7, 1104.32 32 M1104.32 32 C1106.77 396.13, 1106.41 759.56, 1104.32 952.67 M1104.32 32 C1102.9 262.67, 1102.65 493.08, 1104.32 952.67 M1104.32 952.67 C1104.21 973.43, 1092.03 983.01, 1072.32 984.67 M1104.32 952.67 C1102.96 976.26, 1094.84 983.57, 1072.32 984.67 M1072.32 984.67 C796.05 983.83, 519.1 984.01, 32 984.67 M1072.32 984.67 C697.57 986.36, 322.13 986.71, 32 984.67 M32 984.67 C10.38 983.81, 0.95 974.93, 0 952.67 M32 984.67 C8.4 986.81, 0.01 975.69, 0 952.67 M0 952.67 C1.57 729.34, 0.45 506.23, 0 32 M0 952.67 C-1.45 605.59, -1.71 259.31, 0 32 M0 32 C1.97 9.37, 9.57 -1.42, 32 0 M0 32 C1.4 12.63, 8.42 0.68, 32 0" stroke="#1e1e1e" stroke-width="2" fill="none"></path></g><g transform="translate(4341.826491912451 1041.8498099462768) rotate(0 574.4580151420058 44.43588805135232)"><text x="574.4580151420058" y="62.28134069277556" font-family="Virgil, Segoe UI Emoji" font-size="71.09742088216389px" fill="#1e1e1e" text-anchor="middle" style="white-space: pre;" direction="ltr" dominant-baseline="alphabetic">Markets Behaviour</text></g><g transform="translate(4456.469891543398 1211.1253914707677) rotate(0 389.769775390625 134.84004769588728)"><text x="0" y="37.79836217011111" font-family="Virgil, Segoe UI Emoji" font-size="43.14881526268392px" fill="#1e1e1e" text-anchor="start" style="white-space: pre;" direction="ltr" dominant-baseline="alphabetic">- Get Market Data from GraphQL</text><text x="0" y="91.73438124846601" font-family="Virgil, Segoe UI Emoji" font-size="43.14881526268392px" fill="#1e1e1e" text-anchor="start" style="white-space: pre;" direction="ltr" dominant-baseline="alphabetic">- Get Market Data from DB</text><text x="0" y="145.6704003268209" font-family="Virgil, Segoe UI Emoji" font-size="43.14881526268392px" fill="#1e1e1e" text-anchor="start" style="white-space: pre;" direction="ltr" dominant-baseline="alphabetic">- Get Postions from Morpho</text><text x="0" y="199.6064194051758" font-family="Virgil, Segoe UI Emoji" font-size="43.14881526268392px" fill="#1e1e1e" text-anchor="start" style="white-space: pre;" direction="ltr" dominant-baseline="alphabetic">- liquidate Positions</text><text x="0" y="253.5424384835307" font-family="Virgil, Segoe UI Emoji" font-size="43.14881526268392px" fill="#1e1e1e" text-anchor="start" style="white-space: pre;" direction="ltr" dominant-baseline="alphabetic">- Store liquidated Positions in cache</text></g><g stroke-linecap="round" transform="translate(7068.537907009764 2464.298072840709) rotate(0 552.1576282437582 419.78104198642814)"><path d="M32 0 C275.78 -3.27, 518.74 -4.06, 1072.32 0 M32 0 C360.43 -1.22, 689.26 -0.92, 1072.32 0 M1072.32 0 C1091.7 -1.72, 1105.8 12.1, 1104.32 32 M1072.32 0 C1094.28 -0.4, 1103.15 12.15, 1104.32 32 M1104.32 32 C1105.34 300.06, 1105.36 568.45, 1104.32 807.56 M1104.32 32 C1102.18 194.85, 1102.39 357.45, 1104.32 807.56 M1104.32 807.56 C1105.39 829.43, 1093.39 839.74, 1072.32 839.56 M1104.32 807.56 C1102.47 828.93, 1092.11 840.25, 1072.32 839.56 M1072.32 839.56 C815.35 842.73, 557.69 842.78, 32 839.56 M1072.32 839.56 C692.09 843.48, 311.75 843.48, 32 839.56 M32 839.56 C10 839.69, -0.17 829.77, 0 807.56 M32 839.56 C9.78 839.28, -0.22 828.5, 0 807.56 M0 807.56 C-1.27 610.41, -0.66 411.06, 0 32 M0 807.56 C0.81 517.34, 0.87 226.47, 0 32 M0 32 C1.07 11.67, 9.27 -1.36, 32 0 M0 32 C1.62 9.77, 12.14 0.19, 32 0" stroke="#1e1e1e" stroke-width="2" fill="none"></path></g><g transform="translate(7042.585671359578 2537.975671567172) rotate(0 647.9343453714209 50.11948180135232)"><text x="647.9343453714209" y="70.24746569277553" font-family="Virgil, Segoe UI Emoji" font-size="80.19117088216385px" fill="#1e1e1e" text-anchor="middle" style="white-space: pre;" direction="ltr" dominant-baseline="alphabetic">Market Behaviour</text></g><g transform="translate(7187.502508490525 2722.876253091663) rotate(0 389.769775390625 80.90402861753228)"><text x="0" y="37.79836217011111" font-family="Virgil, Segoe UI Emoji" font-size="43.14881526268392px" fill="#1e1e1e" text-anchor="start" style="white-space: pre;" direction="ltr" dominant-baseline="alphabetic">- Get Postions from Morpho</text><text x="0" y="91.73438124846601" font-family="Virgil, Segoe UI Emoji" font-size="43.14881526268392px" fill="#1e1e1e" text-anchor="start" style="white-space: pre;" direction="ltr" dominant-baseline="alphabetic">- liquidate Positions</text><text x="0" y="145.6704003268209" font-family="Virgil, Segoe UI Emoji" font-size="43.14881526268392px" fill="#1e1e1e" text-anchor="start" style="white-space: pre;" direction="ltr" dominant-baseline="alphabetic">- Store liquidated Positions in cache</text></g><g mask="url(#mask-pGhOGcyCX-ed0DbCpfzn9)" stroke-linecap="round"><g transform="translate(4725.5342435501225 3140.194104127254) rotate(0 -80.94046459177682 -597.0673017233739)"><path d="M-0.31 0.01 C-27.24 -198.78, -134.31 -994.78, -161.29 -1193.89 M1.73 -1.04 C-25.33 -200.1, -134.45 -997.13, -161.93 -1195.89" stroke="#1e1e1e" stroke-width="2" fill="none"></path></g><g transform="translate(4725.5342435501225 3140.194104127254) rotate(0 -80.94046459177682 -597.0673017233739)"><path d="M-150.26 -1173.78 C-153.8 -1179.98, -157.19 -1188.65, -161.93 -1195.89 M-150.26 -1173.78 C-152.28 -1179.76, -156.13 -1185.1, -161.93 -1195.89" stroke="#1e1e1e" stroke-width="2" fill="none"></path></g><g transform="translate(4725.5342435501225 3140.194104127254) rotate(0 -80.94046459177682 -597.0673017233739)"><path d="M-167.2 -1171.45 C-165.24 -1178.36, -163.14 -1187.79, -161.93 -1195.89 M-167.2 -1171.45 C-164.84 -1178.19, -164.31 -1184.13, -161.93 -1195.89" stroke="#1e1e1e" stroke-width="2" fill="none"></path></g></g><mask id="mask-pGhOGcyCX-ed0DbCpfzn9"><rect x="0" y="0" fill="#fff" width="4987.415172733676" height="4434.328707574002"></rect><rect x="4507.253828396822" y="2520.62680240388" fill="#000" width="274.6799011230469" height="45" opacity="1"></rect></mask><g transform="translate(4507.253828396822 2520.62680240388) rotate(0 138.1799527574703 21.627011276018038)"><text x="137.33995056152344" y="31.536" font-family="Virgil, Segoe UI Emoji" font-size="36px" fill="#1e1e1e" text-anchor="middle" style="white-space: pre;" direction="ltr" dominant-baseline="alphabetic">create markets</text></g><g mask="url(#mask-eqF63gHtjQYeFI62D2xnc)" stroke-linecap="round"><g transform="translate(5129.7611503003345 1955.6275796448908) rotate(0 73.13966739952582 587.183192815974)"><path d="M0.72 -0.09 C25.18 195.63, 122.18 978.91, 146.41 1174.65 M-0.37 -1.19 C23.98 194.13, 121.27 976.54, 145.53 1172.67" stroke="#1e1e1e" stroke-width="2" fill="none"></path></g><g transform="translate(5129.7611503003345 1955.6275796448908) rotate(0 73.13966739952582 587.183192815974)"><path d="M134.15 1150.41 C137.11 1156.54, 140.78 1161.97, 145.53 1172.67 M134.15 1150.41 C137.42 1157.55, 141.74 1163.81, 145.53 1172.67" stroke="#1e1e1e" stroke-width="2" fill="none"></path></g><g transform="translate(5129.7611503003345 1955.6275796448908) rotate(0 73.13966739952582 587.183192815974)"><path d="M151.12 1148.31 C149.53 1155.1, 148.65 1161.1, 145.53 1172.67 M151.12 1148.31 C149.37 1156, 148.68 1162.89, 145.53 1172.67" stroke="#1e1e1e" stroke-width="2" fill="none"></path></g></g><mask id="mask-eqF63gHtjQYeFI62D2xnc"><rect x="0" y="0" fill="#fff" width="5376.040485099386" height="3229.993965276839"></rect><rect x="5133.8168485836495" y="2520.3107724608644" fill="#000" width="138.16793823242188" height="45" opacity="1"></rect></mask><g transform="translate(5133.8168485836495 2520.3107724608644) rotate(0 68.96514303027652 22.04600585983144)"><text x="69.08396911621094" y="31.536" font-family="Virgil, Segoe UI Emoji" font-size="36px" fill="#1e1e1e" text-anchor="middle" style="white-space: pre;" direction="ltr" dominant-baseline="alphabetic">execute</text></g><g mask="url(#mask-48CINX7vzEPlLmNxknbPK)" stroke-linecap="round"><g transform="translate(5443.238402626244 1229.5854468172356) rotate(0 812.1497521917597 738.0538116489906)"><path d="M0.81 -1.17 C271.33 244.8, 1352.56 1228.67, 1623.22 1475.06 M-0.22 0.82 C270.64 246.98, 1354.61 1230.3, 1625.37 1476.04" stroke="#1e1e1e" stroke-width="2" fill="none"></path></g><g transform="translate(5443.238402626244 1229.5854468172356) rotate(0 812.1497521917597 738.0538116489906)"><path d="M1602.22 1466.59 C1607.37 1467.56, 1614.73 1473.11, 1625.37 1476.04 M1602.22 1466.59 C1611.41 1469.41, 1620.76 1474.1, 1625.37 1476.04" stroke="#1e1e1e" stroke-width="2" fill="none"></path></g><g transform="translate(5443.238402626244 1229.5854468172356) rotate(0 812.1497521917597 738.0538116489906)"><path d="M1613.72 1453.92 C1615.22 1458.89, 1619.03 1468.37, 1625.37 1476.04 M1613.72 1453.92 C1618.59 1461.54, 1623.52 1471.09, 1625.37 1476.04" stroke="#1e1e1e" stroke-width="2" fill="none"></path></g></g><mask id="mask-48CINX7vzEPlLmNxknbPK"><rect x="0" y="0" fill="#fff" width="7167.537907009764" height="2805.693070115217"></rect><rect x="6099.34622366566" y="1945.1392584662262" fill="#000" width="312.0838623046875" height="45" opacity="1"></rect></mask><g transform="translate(6099.3462236656615 1945.1392584662262) rotate(0 156.46491158287984 21.879546696524812)"><text x="156.04193115234375" y="31.536" font-family="Virgil, Segoe UI Emoji" font-size="36px" fill="#1e1e1e" text-anchor="middle" style="white-space: pre;" direction="ltr" dominant-baseline="alphabetic">start liquidations</text></g></svg>